<svg id="const-site" xmlns="http://www.w3.org/2000/svg" viewBox="0 0 753.66 329.92"><title>web_baustelle_new</title><path id="Boden" d="M54.56,312.17H0v-3H54.56Zm215.81,14.48H183v3h87.4ZM58,326.65H19.3v3H58Zm493.35,0H310v3H551.35Zm99.31-17.8H632v3h18.66Zm103,0H690.34v3h63.28ZM221,309.17H185.51v3H221Zm127.51,0H313v3h35.52Zm358.09,17.48H590.7v3H706.6Z" style="fill:#0d5c7e"/><path id="Tanne" d="M693.4,297.21l-10.82-14.94H693.4l-20.7-28.58L652,282.27h10.82L652,297.21h19.32V309H659.15v3h22.61v-3h-7.43V297.21Zm-35.52-3,10.82-14.94H657.88L672.7,258.8l14.81,20.47H676.7l10.81,14.94H674.33V287.5h-3v6.75Z" style="fill:#0d5c7e"/><g id="JS_Wolke" data-name="JS Wolke"><path id="Wolke" d="M114.06,35.09h-23a11.83,11.83,0,0,1,0-23.65h.63v-.73a10.71,10.71,0,1,1,21.42,0v.73h1a11.83,11.83,0,0,1,0,23.65Zm-23-20.65a8.83,8.83,0,0,0,0,17.65h23a8.83,8.83,0,0,0,0-17.65h-4.72l.47-1.86a7.71,7.71,0,1,0-14.94,0l.46,1.86ZM89.19,27.5a9.58,9.58,0,0,1,2.18-6.7A8.62,8.62,0,0,1,98,18.24v3a5.75,5.75,0,0,0-4.46,1.59,6.6,6.6,0,0,0-1.4,4.41Z" style="fill:#0d5c7e"/><path id="JS" d="M102.51,27.5a3.8,3.8,0,0,1-.89-.1V26.14a4.18,4.18,0,0,0,.71.09.82.82,0,0,0,.71-.31,1.62,1.62,0,0,0,.22-1V18.27h1.51V25a2.83,2.83,0,0,1-.57,1.9A2.11,2.11,0,0,1,102.51,27.5Zm8.27-4.08a1.89,1.89,0,0,1-.69,1.53,3,3,0,0,1-1.94.55,4.59,4.59,0,0,1-2-.43v-1.4a12.69,12.69,0,0,0,1.22.45,4.08,4.08,0,0,0,.92.13,1.27,1.27,0,0,0,.76-.19.69.69,0,0,0,.15-.94,1.12,1.12,0,0,0-.34-.31,6.89,6.89,0,0,0-.93-.49,4.78,4.78,0,0,1-1-.59,2.37,2.37,0,0,1-.52-.66,2,2,0,0,1,.45-2.36,2.57,2.57,0,0,1,1.77-.55,4.22,4.22,0,0,1,1.06.13,6.7,6.7,0,0,1,1.06.38l-.49,1.17a6.51,6.51,0,0,0-.94-.32,2.32,2.32,0,0,0-.74-.1.93.93,0,0,0-.66.2.69.69,0,0,0-.23.53.52.52,0,0,0,.1.34,1.14,1.14,0,0,0,.29.29c.32.18.66.35,1,.5a3.65,3.65,0,0,1,1.37,1,1.79,1.79,0,0,1,.37,1.14Z" style="fill:#fff"/></g><g id="SEO_Wolke" data-name="SEO Wolke"><path id="Wolke-2" d="M557.57,77.5H509.4a8.2,8.2,0,1,1,0-16.4,12.25,12.25,0,0,1,12.24-11.86,11.67,11.67,0,0,1,4.25.77,18.16,18.16,0,0,1,15.44-8c9.23,0,16.83,6.31,17.63,14.33a10.65,10.65,0,0,1-1.39,21.16ZM509.39,64.1a5.2,5.2,0,0,0-5.2,5.2h0a5.2,5.2,0,0,0,5.2,5.2h48.18a7.66,7.66,0,0,0,0-15.31h-1.5v-1.5c0-7-6.6-12.73-14.7-12.73-5.84,0-11.12,3-13.47,7.65L527.22,54l-1.35-.69a8.91,8.91,0,0,0-4.2-1,9.26,9.26,0,0,0-9.24,9.24v2.62Zm39.2-2.16h-3A5.78,5.78,0,0,0,544,57.5a6.52,6.52,0,0,0-4.43-1.41l-.25-3A9.51,9.51,0,0,1,546,55.27,8.62,8.62,0,0,1,548.59,62Z" style="fill:#0d5c7e"/><path id="SEO" d="M523.78,67a1.81,1.81,0,0,1-.7,1.52,3,3,0,0,1-1.93.56,4.62,4.62,0,0,1-2-.43v-1.4a12.88,12.88,0,0,0,1.23.45,4,4,0,0,0,.91.13,1.38,1.38,0,0,0,.77-.19.72.72,0,0,0,.15-.94,1.28,1.28,0,0,0-.35-.31,6.78,6.78,0,0,0-.92-.49,4.18,4.18,0,0,1-1-.59,2.24,2.24,0,0,1-.53-.66,1.94,1.94,0,0,1-.19-.88,1.84,1.84,0,0,1,.64-1.49,2.63,2.63,0,0,1,1.77-.54,4.29,4.29,0,0,1,1.07.13,6.59,6.59,0,0,1,1,.38l-.48,1.17a7.26,7.26,0,0,0-1-.32,2.26,2.26,0,0,0-.73-.1.93.93,0,0,0-.66.2.66.66,0,0,0-.23.53.69.69,0,0,0,.09.34,1.18,1.18,0,0,0,.3.29,10.72,10.72,0,0,0,1,.5,3.69,3.69,0,0,1,1.38,1,1.87,1.87,0,0,1,.41,1.14Zm5.4,2h-4.11V61.91h4.11v1.24h-2.59v1.56H529V66h-2.41v1.84h2.59Zm8-3.58a3.89,3.89,0,0,1-.88,2.73,3.83,3.83,0,0,1-5,0,4,4,0,0,1-.87-2.73,3.86,3.86,0,0,1,.88-2.73,3.28,3.28,0,0,1,2.52-.94,3.22,3.22,0,0,1,2.52,1,3.87,3.87,0,0,1,.8,2.65Zm-5.21,0a3.05,3.05,0,0,0,.46,1.81,1.6,1.6,0,0,0,1.35.6c1.21,0,1.82-.8,1.82-2.41s-.61-2.41-1.81-2.41a1.56,1.56,0,0,0-1.36.61,3,3,0,0,0-.49,1.78Z" style="fill:#fff"/></g><g id="UX_Wolke" data-name="UX Wolke"><path id="Gruppe_90" data-name="Gruppe 90" d="M641.06,113.09h-23a11.83,11.83,0,0,1,0-23.65h.63v-.73a10.71,10.71,0,0,1,21.42,0v.73h1a11.83,11.83,0,0,1,0,23.65Zm-23-20.65a8.83,8.83,0,0,0,0,17.65h23a8.83,8.83,0,0,0,0-17.65h-4.72l.47-1.86a7.71,7.71,0,1,0-14.94,0l.46,1.86Z" style="fill:#0d5c7e"/><path id="UX" d="M627.09,96.68h1.51v4.62a2.69,2.69,0,0,1-.36,1.38,2.28,2.28,0,0,1-1,.92,3.75,3.75,0,0,1-1.58.31,3,3,0,0,1-2.14-.7,2.51,2.51,0,0,1-.76-1.93v-4.6h1.51v4.37a1.83,1.83,0,0,0,.33,1.21,1.47,1.47,0,0,0,1.1.38,1.4,1.4,0,0,0,1.08-.39,1.81,1.81,0,0,0,.33-1.21Zm6.62,3.54L636,96.68h-1.63l-1.51,2.56-1.54-2.56H629.6l2.22,3.45-2.37,3.68h1.62l1.66-2.7,1.66,2.7h1.73Z" style="fill:#fff"/></g><g id="HTML_Wolken" data-name="HTML Wolken"><path id="Wolken" d="M203.4,128.73c-.8-8-8.4-14.33-17.64-14.33A19,19,0,0,0,174.51,118a11.69,11.69,0,0,0-8.44-3.58h-1v-.73a10.71,10.71,0,1,0-21.42,0v.73H143a11.83,11.83,0,1,0-.87,23.64h4.36a8.18,8.18,0,0,0,3.62,11l0,0a8.23,8.23,0,0,0,3.68.87H202a10.65,10.65,0,0,0,1.43-21.21Zm-69.2-2.46a8.84,8.84,0,0,1,8.82-8.83h4.31l-.47-1.86a8.48,8.48,0,0,1-.24-1.87,7.71,7.71,0,1,1,15.42,0,7.44,7.44,0,0,1-.24,1.87l-.46,1.86h4.72a8.65,8.65,0,0,1,6.17,2.56l-.06.07a10.1,10.1,0,0,0-.84,1c-.07.09-.14.17-.2.26q-.44.56-.81,1.14a11.88,11.88,0,0,0-3.16-.72h-1.09a12.26,12.26,0,0,0-12.24,11.75,7.46,7.46,0,0,0-1.16.1h-.21a8,8,0,0,0-2.28.74h-.06a7.06,7.06,0,0,0-1,.64h-6a8.84,8.84,0,0,1-8.82-8.82ZM202,146.94H153.79a5.18,5.18,0,0,1-3.14-9.31c.14-.11.29-.21.44-.31l.38-.2.46-.22c.16-.05.32-.11.49-.15l.41-.11a5.56,5.56,0,0,1,1-.1h3v-2.61a9.25,9.25,0,0,1,9.24-9.25,9,9,0,0,1,4.2,1l1.35.69.68-1.35a10.66,10.66,0,0,1,.55-1c0-.08.1-.16.16-.24q.24-.36.51-.72l.15-.2c.22-.27.45-.54.69-.8l0,0c.28-.29.58-.58.89-.86l.13-.11a15.88,15.88,0,0,1,10.34-3.7c8.1,0,14.7,5.71,14.7,12.73v1.5H202a7.65,7.65,0,0,1,0,15.3Z" style="fill:#0d5c7e"/><path id="HTML" d="M172.69,139h-1.51v-3.08h-2.83V139h-1.51v-7.13h1.51v2.79h2.83v-2.79h1.51Zm4.55,0h-1.51v-5.87h-1.94v-1.26h5.39v1.26h-1.94Zm6.06,0-1.72-5.6q.09,1.71.09,2.28V139h-1.35v-7.13h2.06l1.69,5.45,1.79-5.45h2.06V139h-1.41v-3.93c0-.21,0-.76.07-1.66L184.74,139Zm6.41,0v-7.13h1.51v5.88h2.9V139Z" style="fill:#fff"/></g><g id="CSS_Wolke" data-name="CSS Wolke"><path id="Wolke-3" d="M79.6,103.5H31.43a8.2,8.2,0,0,1,0-16.4A12.26,12.26,0,0,1,43.71,75.28a11.68,11.68,0,0,1,4.25.78,18.13,18.13,0,0,1,15.44-8c9.23,0,16.83,6.3,17.63,14.32A10.65,10.65,0,0,1,79.6,103.5ZM31.43,90.1a5.2,5.2,0,0,0,0,10.39H79.6a7.65,7.65,0,0,0,.25-15.3H78.1v-1.5c0-7-6.6-12.73-14.7-12.73-5.83,0-11.12,3-13.47,7.65L49.25,80l-1.34-.69a9,9,0,0,0-4.2-1,9.26,9.26,0,0,0-9.2,9.23v2.61Z" style="fill:#0d5c7e"/><path id="CSS" d="M53.51,87a1.56,1.56,0,0,0-1.33.65,3,3,0,0,0-.46,1.79c0,1.59.59,2.38,1.79,2.38a6,6,0,0,0,1.82-.37v1.27a5.28,5.28,0,0,1-2,.36,3,3,0,0,1-2.39-.94,4,4,0,0,1-.82-2.71,4.42,4.42,0,0,1,.39-2,2.92,2.92,0,0,1,1.17-1.29,3.37,3.37,0,0,1,1.78-.45,4.61,4.61,0,0,1,2.09.51l-.48,1.23a5.73,5.73,0,0,0-.81-.33A2.11,2.11,0,0,0,53.51,87Zm7.55,4a1.89,1.89,0,0,1-.69,1.53,3,3,0,0,1-1.94.55,4.59,4.59,0,0,1-2-.43v-1.4a12.69,12.69,0,0,0,1.22.45,4.08,4.08,0,0,0,.92.13,1.35,1.35,0,0,0,.76-.19.65.65,0,0,0,.27-.56.64.64,0,0,0-.12-.38,1.12,1.12,0,0,0-.34-.31c-.16-.1-.46-.26-.93-.49a4.18,4.18,0,0,1-1-.59,2.37,2.37,0,0,1-.52-.66,1.83,1.83,0,0,1-.2-.88,1.81,1.81,0,0,1,.64-1.48,2.61,2.61,0,0,1,1.78-.55,3.81,3.81,0,0,1,1.06.14,5.79,5.79,0,0,1,1.06.37l-.52,1.21a6.63,6.63,0,0,0-.95-.32,2.26,2.26,0,0,0-.73-.1.93.93,0,0,0-.66.2.71.71,0,0,0-.14.87,1.18,1.18,0,0,0,.3.29,7.18,7.18,0,0,0,1,.5,3.65,3.65,0,0,1,1.37,1A1.84,1.84,0,0,1,61,91Zm5.51,0a1.83,1.83,0,0,1-.7,1.53,3.07,3.07,0,0,1-1.93.55,4.59,4.59,0,0,1-2-.43v-1.4a12.69,12.69,0,0,0,1.22.45,4,4,0,0,0,.91.13,1.38,1.38,0,0,0,.77-.19.73.73,0,0,0,.15-.94,1.15,1.15,0,0,0-.35-.31c-.15-.1-.46-.26-.92-.49a4.18,4.18,0,0,1-1-.59,2.24,2.24,0,0,1-.53-.66,1.94,1.94,0,0,1-.19-.88,1.81,1.81,0,0,1,.64-1.48,2.61,2.61,0,0,1,1.78-.55,3.81,3.81,0,0,1,1.06.14,5.23,5.23,0,0,1,1,.37L66,87.5a7.26,7.26,0,0,0-1-.32,2.26,2.26,0,0,0-.73-.1.93.93,0,0,0-.66.2.71.71,0,0,0-.14.87,1.18,1.18,0,0,0,.3.29,7.18,7.18,0,0,0,1,.5,3.85,3.85,0,0,1,1.37,1,1.86,1.86,0,0,1,.36,1.1Z" style="fill:#fff"/></g><path id="Wireframe" d="M556.09,193h30.33v89.3H556.09ZM394.16,169H586.42v19H394.16ZM502.09,193H551v41.2H502.09Zm-45.92,46.25H394.09v3h62.08Zm8.5,0v3H551v-3Zm38.91,8H394.09v3H503.58Zm8.51,0v3H551v-3Zm15.63,8v3H551v-3Zm-133.63,0v3h23.52v-3Zm32,3h93.1v-3h-93.1Zm48.75,5H394.09v3h80.78Zm8.51,0v3H551v-3Zm-50.11,8H394.09v3h39.18Zm8.5,0v3H551v-3Zm51.82,8h-99.5v3h99.5Zm8.5,0v3H551v-3Zm-54-86.3H497v41.2h-48.9Z" style="fill:#fff"/><path id="Fahrzeug" d="M80.3,312.06a5.06,5.06,0,1,0,5.06,5.06h0A5.07,5.07,0,0,0,80.3,312.06Zm0,7.12a2.06,2.06,0,1,1,2.06-2.06h0A2.06,2.06,0,0,1,80.3,319.18Zm14-7.12a5.06,5.06,0,1,0,5.06,5.06h0A5.07,5.07,0,0,0,94.3,312.06Zm0,7.12a2.06,2.06,0,1,1,2.06-2.06h0A2.06,2.06,0,0,1,94.3,319.18Zm14-7.12a5.06,5.06,0,1,0,5.06,5.06h0A5.07,5.07,0,0,0,108.3,312.06Zm0,7.12a2.06,2.06,0,1,1,2.06-2.06h0A2.06,2.06,0,0,1,108.3,319.18Zm14-7.12a5.06,5.06,0,1,0,5.06,5.06A5.06,5.06,0,0,0,122.3,312.06Zm0,7.12a2.06,2.06,0,1,1,2.06-2.06A2.06,2.06,0,0,1,122.3,319.18Zm14-7.12a5.06,5.06,0,1,0,5.06,5.06h0A5.07,5.07,0,0,0,136.3,312.06Zm0,7.12a2.06,2.06,0,1,1,2.06-2.06h0A2.06,2.06,0,0,1,136.3,319.18Zm14-7.12a5.06,5.06,0,1,0,5.06,5.06h0A5.07,5.07,0,0,0,150.3,312.06Zm0,7.12a2.06,2.06,0,1,1,2.06-2.06h0A2.06,2.06,0,0,1,150.3,319.18ZM165,304.32H136V271a13.51,13.51,0,0,0-13.49-13.5H86.38A13.51,13.51,0,0,0,72.88,271v33.59a12.8,12.8,0,0,0,2.63,25.33H165a12.8,12.8,0,0,0,0-25.6ZM75.88,271a10.51,10.51,0,0,1,10.5-10.5h36.13A10.51,10.51,0,0,1,133,271v33.32H105.65V280.66a9.25,9.25,0,0,0-9.25-9.25H94.94a9.26,9.26,0,0,0-9.26,9.25v23.66h-9.8Zm26.77,9.66v23.66h-14V280.66a6.25,6.25,0,0,1,6.25-6.25h1.47a6.25,6.25,0,0,1,6.28,6.22ZM165,326.92H75.51a9.8,9.8,0,1,1,0-19.6H165a9.8,9.8,0,0,1,0,19.6Zm-45.73-41.63a3.94,3.94,0,0,0,3.94-3.94h0v-6a3.94,3.94,0,0,0-7.88,0v6A4,4,0,0,0,119.27,285.29Zm-.94-9.94a.94.94,0,0,1,1.88,0v6a.94.94,0,0,1-1.88,0h0Z" style="fill:#0d5c7e"/><path id="Baum_links" data-name="Baum links" d="M310,297.41a17.41,17.41,0,1,0-18.9,17.33v11.87H278.93v3h22.58v-3h-7.4V314.74A17.42,17.42,0,0,0,310,297.41Zm-17.4,14.41A14.41,14.41,0,1,1,307,297.4h0A14.42,14.42,0,0,1,292.61,311.82Zm1-5.55a9.42,9.42,0,0,1-6.18-2.2,8.68,8.68,0,0,1-2.56-6.66h3a5.78,5.78,0,0,0,1.59,4.45,6.62,6.62,0,0,0,4.41,1.4l.26,3h-.52Z" style="fill:#0d5c7e"/><path id="oben" d="M269.51,12.71H238.79a9.15,9.15,0,0,0-9.14,9.15V52.5a9.17,9.17,0,0,0,9.14,9.15h30.72a9.17,9.17,0,0,0,9.1-9.15V21.86A9.14,9.14,0,0,0,269.51,12.71Zm6.1,39.79a6.16,6.16,0,0,1-6.14,6.15H238.79a6.17,6.17,0,0,1-6.14-6.15V21.86a6.16,6.16,0,0,1,6.14-6.15h30.72a6.14,6.14,0,0,1,6.14,6.15Z" style="fill:#0d5c7e"/><path id="Krangestell" d="M242.79,5l8.31,7.67h6.06L265.51,5v7.67h3V.11H239.79v12.6h3Zm20.35-1.93-9,8.32-9-8.32ZM242.79,272v-6.38l6.92,6.38h4.41l-9-8.31h18l-9,8.31h4.42l6.91-6.38V272h3V61.68h-3v7.6l-8.23-7.6H251l-8.23,7.6v-7.6h-3V272Zm2.34-11.31,9-8.32,9,8.32ZM263.06,97.93l-8.93,8.24-8.92-8.24Zm-17.85-3.08,8.92-8.24,8.93,8.24Zm17.93,23.73h-18l9-8.32Zm0,3-9,8.31-9-8.31Zm-.08,20.65H245.21l8.92-8.25Zm0,3.07-8.93,8.2-8.92-8.24Zm.08,20.65h-18l9-8.32Zm0,3-9,8.32-9-8.32Zm-.08,20.65H245.21l8.92-8.25Zm0,3.07-8.93,8.25-8.92-8.25Zm.08,20.65h-18l9-8.32Zm0,3-9,8.32-9-8.32ZM263.06,237H245.21l8.92-8.25Zm0,3.07-8.93,8.25L245.21,240Zm2.45,18.72-9.13-8.43,9.13-8.43Zm0-23.65-9.13-8.43,9.13-8.43Zm0-23.72L256.38,203l9.13-8.46Zm0-23.65-9.13-8.43,9.13-8.44Zm0-23.72-9.13-8.43,9.13-8.44Zm0-23.65-9.13-8.43,9.13-8.44Zm0-23.72-9.13-8.44,9.13-8.43Zm0-23.65-9.13-8.43,9.13-8.44ZM254.17,62.89l9,8.31h-18Zm9,11.31-9,8.32-9-8.32Zm-20.35,1.93L252,84.57,242.82,93Zm0,23.65,9.13,8.43-9.13,8.44Zm0,23.72,9.13,8.44-9.13,8.43Zm0,23.65,9.13,8.44L242.82,164Zm0,23.72,9.13,8.44-9.13,8.43Zm0,23.65L252,203l-9.13,8.43Zm0,23.73,9.13,8.43-9.13,8.43Zm0,23.65,9.13,8.43-9.13,8.43ZM229.65,47.56h-10.2l9-8.32,1.19,1.1V34.05l-1.13,1.1-9-8.32h10.2v-3H189.36l-.91.85V50.56h41.2ZM211.79,26.83l-9,8.32-9-8.32Zm-20.34,1.93,9.12,8.43-9.12,8.44Zm2.33,18.8,9-8.32,9,8.32Zm20.34-1.93L205,37.19l9.13-8.43Zm3-16.87,9.13,8.43-9.13,8.44Zm242.39,6.39L448.18,24.8l-1.07-1H278.61v3h10.2l-9,8.32L278.62,34V40.3l1.19-1.09,9,8.32h-10.2v3H445.18v3H278.51a9.33,9.33,0,0,1-.88,3H448.16V49.7l2.35-2.14,9-8.32.06,0,2.2-2ZM291.14,45.63,282,37.19l9.13-8.43Zm23.37-18.8-9,8.32-9-8.32Zm-20.34,1.93,9.13,8.43-9.13,8.44Zm2.34,18.8,9-8.32,9,8.32Zm20.34-1.93-9.13-8.44,9.13-8.43Zm23.34-18.8-9,8.32-9-8.32Zm-20.38,1.93,9.13,8.43-9.13,8.44Zm2.33,18.8,9-8.32,9,8.32Zm20.37-1.93-9.12-8.44,9.12-8.43Zm23.34-18.8-9,8.32-9-8.32Zm-20.34,1.93,9.13,8.43-9.13,8.44Zm2.34,18.8,9-8.32,9,8.32Zm20.34-1.93-9.13-8.44,9.13-8.43Zm23.32-18.8-9,8.32-9-8.32Zm-20.34,1.93,9.12,8.43-9.12,8.44Zm2.34,18.8,9-8.32,9,8.32Zm20.34-1.93-9.13-8.44,9.13-8.43Zm23.34-18.8-9,8.32-9-8.32Zm-20.34,1.93L406,37.19l-9.13,8.44Zm2.33,18.8,9-8.32,9,8.32Zm20.33-1.93-9.12-8.44,9.12-8.43Zm23.34-18.8-9,8.32-9-8.32Zm-20.34,1.93,9.13,8.43-9.13,8.44Zm2.34,18.8,9-8.32,9,8.32Zm20.34-1.93-9.13-8.44,9.13-8.43Zm3,0V28.76l9.12,8.43Z" style="fill:#0d5c7e"/><path id="Fuß" d="M279.74,309.12h-41A6.17,6.17,0,0,1,232.6,303V281.15a6.16,6.16,0,0,1,6.14-6.15h52.77a6.13,6.13,0,0,1,6.12,5.73,16.31,16.31,0,0,1,3,1.23v-.81a9.14,9.14,0,0,0-9.12-9.15H238.79a9.15,9.15,0,0,0-9.14,9.15V303a9.16,9.16,0,0,0,9.14,9.15h44.53a18,18,0,0,1-3.58-3Z" style="fill:#0d5c7e"/><path id="Baum_rechts" data-name="Baum rechts" d="M590.9,297.41A17.41,17.41,0,1,0,572,314.74v11.87H559.82v3h22.61v-3H575V314.74A17.42,17.42,0,0,0,590.9,297.41Zm-17.39,14.41a14.41,14.41,0,1,1,14.4-14.42h0A14.42,14.42,0,0,1,573.51,311.82Zm1-5.55a9.42,9.42,0,0,1-6.18-2.2,8.68,8.68,0,0,1-2.56-6.66h3a5.78,5.78,0,0,0,1.59,4.45,6.62,6.62,0,0,0,4.41,1.4l.26,3Z" style="fill:#0d5c7e"/><path id="Macbook" d="M556.1,297.63H378.76v-129a15,15,0,0,1,15-15h193a15,15,0,0,1,15,15h0v129H590.89v-.22a17.2,17.2,0,0,0-1.85-7.78h4.71v-121a7,7,0,0,0-7-7h-193a7,7,0,0,0-7,7v121H557.94a17.33,17.33,0,0,0-1.85,7.78c0,.09,0,.14,0,.22Zm34.06,4.78a17.44,17.44,0,0,1-8.22,10.19H613.8a9.71,9.71,0,0,0,9.69-9.69v-.5Zm-33.34,0H503.65V305c0,.56-.32,1-.71,1H477.57c-.39,0-.7-.46-.7-1v-2.56H357v.5a9.71,9.71,0,0,0,9.69,9.69H565a17.51,17.51,0,0,1-8.22-10.19Z" style="fill:#0d5c7e"/></svg>